<?xml version="1.0" standalone="no"?>
<!DOCTYPE svg PUBLIC "-//W3C//DTD SVG 20010904//EN"
 "http://www.w3.org/TR/2001/REC-SVG-20010904/DTD/svg10.dtd">
<svg version="1.0" xmlns="http://www.w3.org/2000/svg"
 width="70.000000pt" height="70.000000pt" viewBox="0 0 70.000000 70.000000"
 preserveAspectRatio="xMidYMid meet">
<metadata>
Created by potrace 1.11, written by Peter Selinger 2001-2013
</metadata>
<g transform="translate(0.000000,70.000000) scale(0.100000,-0.100000)"
fill="#000000" stroke="none">
<path d="M390 590 c-6 -11 -20 -20 -31 -20 -15 0 -19 -5 -15 -16 3 -9 6 -25 6
-36 0 -16 5 -19 24 -14 14 3 28 2 31 -4 11 -17 35 -11 35 10 0 10 7 23 16 28
21 12 10 32 -17 32 -10 0 -19 6 -19 14 0 24 -18 28 -30 6z m33 -61 c-4 -15 -9
-17 -19 -8 -7 6 -18 8 -24 4 -5 -3 -10 1 -10 10 0 9 5 13 10 10 6 -3 13 1 16
10 9 23 33 0 27 -26z"/>
<path d="M530 501 c-14 -5 -44 -18 -67 -29 -23 -12 -59 -22 -80 -22 -47 0
-113 -30 -139 -62 -10 -13 -40 -36 -65 -50 -56 -33 -119 -101 -119 -129 0 -26
43 -66 82 -74 16 -4 54 -4 84 0 45 5 57 3 82 -15 112 -83 286 -4 288 131 0 40
6 54 37 88 20 22 39 52 43 66 19 76 -53 124 -146 96z m108 -27 c54 -38 10
-117 -105 -191 -102 -66 -157 -93 -218 -109 -92 -25 -81 -14 30 29 260 100
394 263 230 280 l-40 4 40 1 c23 1 50 -5 63 -14z m-128 -9 c-14 -8 -29 -14
-35 -14 -5 0 1 6 15 14 14 8 30 14 35 14 6 0 -1 -6 -15 -14z m94 -5 c34 -13
33 -37 -3 -80 l-29 -35 -40 45 c-22 25 -39 47 -37 48 3 3 70 29 82 32 1 0 13
-4 27 -10z m-244 -44 c0 -19 -39 -31 -53 -17 -7 7 -3 13 14 20 34 14 39 13 39
-3z m30 -90 c0 -19 -26 -27 -39 -12 -13 15 -4 26 21 26 10 0 18 -6 18 -14z
m-129 -39 c-8 -8 -11 -5 -11 9 0 27 14 41 18 19 2 -9 -1 -22 -7 -28z m-53 -2
c1 -19 8 -50 16 -69 l14 -34 -31 -5 c-91 -13 -115 39 -47 104 22 21 42 39 44
39 1 0 3 -16 4 -35z m-91 -23 c-22 -24 -22 -60 1 -86 17 -20 17 -20 -8 -5 -14
9 -26 25 -28 36 -3 18 32 73 45 73 3 0 -1 -8 -10 -18z m458 -39 c-3 -16 -13
-35 -21 -43 -12 -12 -14 -11 -14 9 0 28 17 61 31 61 7 0 9 -10 4 -27z m-362
-70 c-13 -2 -35 -2 -50 0 -16 2 -5 4 22 4 28 0 40 -2 28 -4z"/>
</g>
</svg>
